<svg xmlns="http://www.w3.org/2000/svg" xmlns:xlink="http://www.w3.org/1999/xlink" version="1.1" width="256" height="256" viewBox="0 0 256 256" xml:space="preserve">
<desc>Created with Fabric.js 1.7.22</desc>
<defs>
</defs>
<g transform="translate(128 128) scale(0.72 0.72)" style="">
	<g style="stroke: none; stroke-width: 0; stroke-dasharray: none; stroke-linecap: butt; stroke-linejoin: miter; stroke-miterlimit: 10; fill: none; fill-rule: nonzero; opacity: 1;" transform="translate(-175.05 -175.05) scale(3.89 3.89)" >
	<path d="M 89.161 11.093 c -0.109 -0.329 -0.381 -0.578 -0.719 -0.658 c -0.334 -0.078 -0.692 0.02 -0.937 0.266 l -7.189 7.189 c -1.096 1.096 -2.553 1.7 -4.104 1.7 c -1.55 0 -3.007 -0.603 -4.104 -1.699 c -2.262 -2.263 -2.262 -5.944 0 -8.207 l 7.189 -7.189 c 0.245 -0.245 0.346 -0.6 0.266 -0.937 c -0.079 -0.337 -0.329 -0.609 -0.658 -0.719 c -5.863 -1.945 -12.216 -0.449 -16.57 3.906 c -4.463 4.462 -5.916 11.049 -3.792 16.948 L 21.693 58.544 c -5.897 -2.124 -12.485 -0.67 -16.948 3.792 C 0.39 66.691 -1.107 73.04 0.838 78.906 c 0.109 0.329 0.381 0.579 0.719 0.658 c 0.335 0.081 0.692 -0.021 0.937 -0.266 l 7.189 -7.189 c 2.261 -2.263 5.943 -2.263 8.207 0 c 1.096 1.096 1.699 2.553 1.699 4.104 s -0.603 3.007 -1.7 4.104 l -7.189 7.189 c -0.245 0.245 -0.346 0.599 -0.266 0.937 c 0.08 0.338 0.329 0.609 0.658 0.719 c 1.7 0.563 3.44 0.839 5.16 0.839 c 4.218 0 8.317 -1.652 11.41 -4.745 c 4.463 -4.463 5.917 -11.049 3.793 -16.948 l 36.851 -36.851 c 5.9 2.123 12.485 0.671 16.948 -3.793 C 89.611 23.309 91.107 16.959 89.161 11.093 z" style="stroke: none; stroke-width: 1; stroke-dasharray: none; stroke-linecap: butt; stroke-linejoin: miter; stroke-miterlimit: 10; fill: rgb(0,0,0); fill-rule: nonzero; opacity: 1;" transform=" matrix(1 0 0 1 0 0) " stroke-linecap="round" />
	<path d="M 72.088 57.275 c -0.177 -0.177 -0.413 -0.28 -0.662 -0.292 c -3.462 -0.155 -7.078 -1.876 -9.923 -4.721 c -1.742 -1.743 -3.065 -3.782 -3.863 -5.897 L 46.517 57.488 c 2.115 0.799 4.154 2.121 5.897 3.863 c 2.845 2.846 4.565 6.462 4.721 9.923 c 0.012 0.249 0.115 0.485 0.292 0.662 l 14.876 14.876 c 2.021 2.021 4.676 3.031 7.33 3.031 c 2.655 0 5.311 -1.01 7.331 -3.031 c 4.041 -4.042 4.041 -10.619 0 -14.661 L 72.088 57.275 z" style="stroke: none; stroke-width: 1; stroke-dasharray: none; stroke-linecap: butt; stroke-linejoin: miter; stroke-miterlimit: 10; fill: rgb(0,0,0); fill-rule: nonzero; opacity: 1;" transform=" matrix(1 0 0 1 0 0) " stroke-linecap="round" />
	<path d="M 5.351 14.171 c 0.123 0.219 0.324 0.384 0.563 0.462 l 5.82 1.89 l 23.869 23.869 l 4.638 -4.638 L 16.372 11.885 l -1.891 -5.82 c -0.078 -0.239 -0.243 -0.44 -0.462 -0.563 L 4.714 0.279 c -0.391 -0.219 -0.88 -0.151 -1.196 0.165 L 0.293 3.668 c -0.317 0.317 -0.384 0.806 -0.165 1.196 L 5.351 14.171 z" style="stroke: none; stroke-width: 1; stroke-dasharray: none; stroke-linecap: butt; stroke-linejoin: miter; stroke-miterlimit: 10; fill: rgb(0,0,0); fill-rule: nonzero; opacity: 1;" transform=" matrix(1 0 0 1 0 0) " stroke-linecap="round" />
</g>
</g>
</svg>